<?xml version="1.0" encoding="UTF-8" standalone="no"?>
<!-- Created with Inkscape (http://www.inkscape.org/) -->

<svg
   xmlns:osb="http://www.openswatchbook.org/uri/2009/osb"
   xmlns:dc="http://purl.org/dc/elements/1.1/"
   xmlns:cc="http://creativecommons.org/ns#"
   xmlns:rdf="http://www.w3.org/1999/02/22-rdf-syntax-ns#"
   xmlns:svg="http://www.w3.org/2000/svg"
   xmlns="http://www.w3.org/2000/svg"
   xmlns:sodipodi="http://sodipodi.sourceforge.net/DTD/sodipodi-0.dtd"
   xmlns:inkscape="http://www.inkscape.org/namespaces/inkscape"
   width="10mm"
   height="10mm"
   viewBox="0 0 10 10"
   version="1.1"
   id="svg8"
   inkscape:version="0.92.2 (5c3e80d, 2017-08-06)"
   sodipodi:docname="seaborg-dark.svg">
  <defs
     id="defs2">
    <linearGradient
       id="linearGradient931"
       osb:paint="solid">
      <stop
         style="stop-color:#000000;stop-opacity:1;"
         offset="0"
         id="stop929" />
    </linearGradient>
  </defs>
  <sodipodi:namedview
     id="base"
     pagecolor="#ffffff"
     bordercolor="#666666"
     borderopacity="1.0"
     inkscape:pageopacity="0"
     inkscape:pageshadow="2"
     inkscape:zoom="11.2"
     inkscape:cx="-15.77516"
     inkscape:cy="4.7032424"
     inkscape:document-units="mm"
     inkscape:current-layer="layer1"
     showgrid="false"
     inkscape:window-width="1945"
     inkscape:window-height="1198"
     inkscape:window-x="469"
     inkscape:window-y="390"
     inkscape:window-maximized="0"
     inkscape:pagecheckerboard="false"
     fit-margin-top="0"
     fit-margin-left="0"
     fit-margin-right="0"
     fit-margin-bottom="0" />
  <metadata
     id="metadata5">
    <rdf:RDF>
      <cc:Work
         rdf:about="">
        <dc:format>image/svg+xml</dc:format>
        <dc:type
           rdf:resource="http://purl.org/dc/dcmitype/StillImage" />
        <dc:title></dc:title>
      </cc:Work>
    </rdf:RDF>
  </metadata>
  <g
     inkscape:label="Layer 1"
     inkscape:groupmode="layer"
     id="layer1"
     transform="translate(-0.75914909,5.0350241)">
    <g
       aria-label="Sg"
       style="font-style:normal;font-variant:normal;font-weight:bold;font-stretch:normal;font-size:10.58333302px;line-height:1.25;font-family:Carlito;-inkscape-font-specification:'Carlito, Bold';font-variant-ligatures:normal;font-variant-caps:normal;font-variant-numeric:normal;font-feature-settings:normal;text-align:start;letter-spacing:0px;word-spacing:0px;writing-mode:lr-tb;text-anchor:start;opacity:1;fill:#ffffff;fill-opacity:1;stroke:#ffffff;stroke-width:0;stroke-miterlimit:4;stroke-dasharray:none;stroke-opacity:1"
       id="text2607">
      <path
         d="m 4.9944017,-2.8241382 q -0.051676,0.1033529 -0.1240234,0.1498617 -0.067179,0.041341 -0.1705323,0.041341 -0.098185,0 -0.2118733,-0.072347 -0.1136882,-0.072347 -0.2687175,-0.1550293 -0.1498616,-0.08785 -0.3513997,-0.1601969 -0.2015381,-0.072347 -0.4650879,-0.072347 -0.4650878,0 -0.7027994,0.2273763 -0.232544,0.2273763 -0.232544,0.594279 0,0.2325439 0.1240235,0.3875732 0.1291911,0.1498616 0.3358968,0.2635498 0.2118733,0.1085205 0.4754231,0.1963704 0.2687175,0.08785 0.5477702,0.1912028 0.2790527,0.098185 0.5426025,0.23771159 0.2687175,0.13435872 0.4754232,0.34106444 0.2118734,0.20670573 0.3358968,0.50642903 0.1291911,0.29972329 0.1291911,0.72863767 0,0.46508787 -0.1550293,0.87333167 Q 5.1287604,1.8629141 4.8342048,2.1678051 4.5396491,2.4675284 4.1107347,2.6432282 3.686988,2.8189281 3.1392178,2.8189281 q -0.3100585,0 -0.6201171,-0.067179 Q 2.2142097,2.689737 1.9299894,2.5708812 1.645769,2.4520254 1.3925545,2.2866608 1.13934,2.1212963 0.94813718,1.9145905 L 1.3512133,1.2686352 q 0.046509,-0.077515 0.1240235,-0.1240235 0.082682,-0.046509 0.1756998,-0.046509 0.1240235,0 0.2532145,0.098185 0.1343588,0.093018 0.3100586,0.2118733 0.1756999,0.1136882 0.4082438,0.2118734 0.232544,0.093018 0.5529378,0.093018 0.4650879,0 0.7234701,-0.2377116 0.2583821,-0.2377116 0.2583821,-0.70279948 0,-0.26354979 -0.129191,-0.42891437 Q 3.904029,0.17826247 3.6973233,0.06974197 3.4906176,-0.04394618 3.2219001,-0.12146083 2.9583503,-0.20414312 2.6792976,-0.29716069 2.4054125,-0.39017827 2.1366951,-0.51936935 1.8731453,-0.65372807 1.6664396,-0.87076907 1.4597338,-1.0878101 1.3305428,-1.408204 1.2065193,-1.7285978 1.2065193,-2.204021 q 0,-0.3772379 0.144694,-0.7338053 0.144694,-0.361735 0.4237468,-0.6407877 0.2790527,-0.2790528 0.6821289,-0.4444173 0.4082438,-0.1705323 0.9301757,-0.1705323 0.5891113,0 1.0903727,0.1912028 0.506429,0.1912028 0.8629964,0.5374349 z"
         id="path2930"
         inkscape:connector-curvature="0"
         style="fill:#ffffff;fill-opacity:1" />
      <path
         d="m 8.1363285,-2.4727384 q 0.3100586,0 0.5839437,0.067179 0.2790527,0.067179 0.5115967,0.1912028 h 1.4262691 v 0.4909261 q 0,0.1136882 -0.06718,0.1808675 -0.06201,0.067179 -0.211873,0.098185 l -0.4030765,0.082682 q 0.093018,0.2583822 0.093018,0.5477702 0,0.38240559 -0.1498706,0.69246417 -0.14469,0.30489094 -0.4082398,0.52193195 -0.2583822,0.21704101 -0.6149495,0.3358968 -0.3513998,0.11368815 -0.7596436,0.11368815 -0.1240234,0 -0.2428792,-0.0103353 Q 7.7745935,0.8293855 7.6557377,0.80871492 7.4645349,0.93273836 7.4645349,1.0981029 q 0,0.1498617 0.1343587,0.217041 0.1343588,0.067179 0.3513998,0.098185 0.217041,0.025838 0.4960937,0.036174 0.2790527,0.00517 0.5684407,0.031006 0.2945557,0.025838 0.5736084,0.08785 0.2790528,0.062012 0.4960938,0.201538 0.217041,0.1395264 0.3514,0.3720703 0.134358,0.232544 0.134358,0.5994466 0,0.3410645 -0.160197,0.6614583 Q 10.249895,3.7284333 9.9450036,3.9816478 9.6401127,4.2348623 9.1956954,4.3847239 8.7512781,4.5397532 8.1828373,4.5397532 q -0.5581054,0 -0.9715169,-0.1136881 Q 6.797909,4.3123769 6.5291915,4.1263418 6.2604741,3.9403066 6.1261154,3.6922598 5.9969243,3.4493805 5.9969243,3.1858307 q 0,-0.346232 0.1963704,-0.5839436 Q 6.3896652,2.3590078 6.7358973,2.2143138 6.5550297,2.110961 6.4413416,1.9300935 6.3328211,1.749226 6.3328211,1.4701732 q 0,-0.1136881 0.036173,-0.2325439 Q 6.4103357,1.1136059 6.493018,0.99475008 6.5757003,0.87072664 6.6945561,0.76220614 6.8134119,0.65368563 6.9787765,0.5658357 6.6067062,0.35396233 6.3896652,0.00773025 6.1777918,-0.34366948 6.1777918,-0.813925 q 0,-0.3824056 0.1498617,-0.6872965 0.1498616,-0.3100586 0.4082438,-0.521932 0.2635498,-0.217041 0.6201171,-0.3307291 0.361735,-0.1188558 0.7803141,-0.1188558 z m 1.2247314,5.4363605 q 0,-0.1395264 -0.077515,-0.2273763 Q 9.2060306,2.6483959 9.0716719,2.6018871 8.9373132,2.5502106 8.7564457,2.5295401 8.5755782,2.5037019 8.3688725,2.4933666 8.1673344,2.4778636 7.9451257,2.4675284 7.7280847,2.4571931 7.5162114,2.4313549 7.3456791,2.5398754 7.2371586,2.6845694 7.1338058,2.8292634 7.1338058,3.0204662 q 0,0.129191 0.051676,0.2377115 0.056844,0.1085205 0.1808675,0.1860352 0.1240234,0.077515 0.3307292,0.1188558 0.2067057,0.046509 0.5115966,0.046509 0.3203939,0 0.5374349,-0.051676 Q 8.9683191,3.5113923 9.1026778,3.4235423 9.2422041,3.34086 9.2990482,3.2220042 9.3610599,3.1031484 9.3610599,2.9636221 Z M 8.1363285,0.00773025 q 0.3979085,0 0.5839437,-0.21704101 0.1912028,-0.21704101 0.1912028,-0.57360838 0,-0.36173506 -0.1912028,-0.56844076 -0.1860352,-0.2118733 -0.5839437,-0.2118733 -0.3927408,0 -0.5839436,0.2118733 -0.1860352,0.2067057 -0.1860352,0.56844076 0,0.35139973 0.1860352,0.57360838 0.1912028,0.21704101 0.5839436,0.21704101 z"
         id="path2932"
         inkscape:connector-curvature="0"
         style="fill:#ffffff;fill-opacity:1" />
    </g>
  </g>
</svg>
